<svg width="60" height="60" viewBox="0 0 60 60" fill="none" xmlns="http://www.w3.org/2000/svg">
<path d="M56.175 47.0499L53.675 37.3999L45.8 8.42489C45.6298 7.78574 45.2133 7.24008 44.6416 6.90739C44.07 6.5747 43.3898 6.48211 42.75 6.64989L33.075 9.14989C32.8441 8.894 32.5628 8.68862 32.2487 8.54665C31.9347 8.40468 31.5946 8.32918 31.25 8.32489H6.25C5.58696 8.32489 4.95107 8.58828 4.48223 9.05713C4.01339 9.52597 3.75 10.1619 3.75 10.8249V50.8249C3.75 51.4879 4.01339 52.1238 4.48223 52.5927C4.95107 53.0615 5.58696 53.3249 6.25 53.3249H31.25C31.913 53.3249 32.5489 53.0615 33.0178 52.5927C33.4866 52.1238 33.75 51.4879 33.75 50.8249V30.8249L39.25 51.3749C39.3965 51.9203 39.7233 52.4 40.1773 52.736C40.6313 53.0719 41.1856 53.2442 41.75 53.2249C41.966 53.2495 42.184 53.2495 42.4 53.2249L54.475 49.9999C54.7942 49.9145 55.0934 49.7668 55.3551 49.5651C55.6169 49.3634 55.8361 49.1118 56 48.8249C56.2637 48.2718 56.3256 47.6438 56.175 47.0499ZM16.175 48.4249H8.675V43.4249H16.175V48.4249ZM16.175 38.4249H8.675V23.4249H16.175V38.4249ZM16.175 18.4249H8.675V13.4249H16.175V18.4249ZM28.675 48.4249H21.175V43.4249H28.675V48.4249ZM28.675 38.4249H21.175V23.4249H28.675V38.4249ZM28.675 18.4249H21.175V13.4249H28.675V18.4249ZM34.3 14.0749L41.55 12.1249L42.85 16.9499L35.6 18.8999L34.3 14.0749ZM40.775 38.2249L36.9 23.7249L44.15 21.7749L48.025 36.2749L40.775 38.2249ZM43.275 47.8749L41.975 43.0499L49.225 41.0999L50.525 45.9249L43.275 47.8749Z" fill="#97A0CC"/>
</svg>
