<svg width="70" height="70" viewBox="0 0 70 70" fill="none" xmlns="http://www.w3.org/2000/svg">
<path d="M55.4167 40.8333H61.25C62.0235 40.8333 62.7654 40.526 63.3124 39.979C63.8594 39.432 64.1667 38.6901 64.1667 37.9166C64.1667 37.143 63.8594 36.4012 63.3124 35.8542C62.7654 35.3072 62.0235 34.9999 61.25 34.9999H55.4167V32.0833C55.3909 30.7396 55.1849 29.4055 54.8042 28.1166C57.5457 27.0655 59.9062 25.2113 61.5767 22.7967C63.2471 20.382 64.1498 17.5194 64.1667 14.5833C64.1667 13.8097 63.8594 13.0678 63.3124 12.5209C62.7654 11.9739 62.0235 11.6666 61.25 11.6666C60.4764 11.6666 59.7346 11.9739 59.1876 12.5209C58.6406 13.0678 58.3333 13.8097 58.3333 14.5833C58.3308 16.464 57.7222 18.294 56.598 19.8017C55.4737 21.3095 53.8935 22.4149 52.0917 22.9541C50.6532 21.1107 48.7926 19.6402 46.6667 18.6666C46.6969 18.2783 46.6969 17.8882 46.6667 17.4999C46.6667 14.4057 45.4375 11.4383 43.2496 9.25034C41.0617 7.06242 38.0942 5.83325 35 5.83325C31.9058 5.83325 28.9383 7.06242 26.7504 9.25034C24.5625 11.4383 23.3333 14.4057 23.3333 17.4999C23.3031 17.8882 23.3031 18.2783 23.3333 18.6666C21.1651 19.6242 19.263 21.0958 17.7917 22.9541C16.0116 22.3943 14.457 21.28 13.3551 19.7741C12.2532 18.2681 11.6616 16.4493 11.6667 14.5833C11.6667 13.8097 11.3594 13.0678 10.8124 12.5209C10.2654 11.9739 9.52355 11.6666 8.75 11.6666C7.97645 11.6666 7.23458 11.9739 6.6876 12.5209C6.14062 13.0678 5.83333 13.8097 5.83333 14.5833C5.85015 17.5194 6.75285 20.382 8.42333 22.7967C10.0938 25.2113 12.4543 27.0655 15.1958 28.1166C14.8151 29.4055 14.6091 30.7396 14.5833 32.0833V34.9999H8.75C7.97645 34.9999 7.23458 35.3072 6.6876 35.8542C6.14062 36.4012 5.83333 37.143 5.83333 37.9166C5.83333 38.6901 6.14062 39.432 6.6876 39.979C7.23458 40.526 7.97645 40.8333 8.75 40.8333H14.5833V43.7499C14.5859 45.1018 14.7226 46.4501 14.9917 47.7749C12.2975 48.8546 9.98677 50.7137 8.35525 53.1142C6.72373 55.5147 5.84563 58.3475 5.83333 61.2499C5.83333 62.0235 6.14062 62.7653 6.6876 63.3123C7.23458 63.8593 7.97645 64.1666 8.75 64.1666C9.52355 64.1666 10.2654 63.8593 10.8124 63.3123C11.3594 62.7653 11.6667 62.0235 11.6667 61.2499C11.6745 59.5489 12.1781 57.887 13.1157 56.4676C14.0533 55.0483 15.3843 53.933 16.9458 53.2583C18.6804 56.5431 21.2783 59.2925 24.4596 61.2102C27.641 63.128 31.2853 64.1414 35 64.1414C38.7147 64.1414 42.359 63.128 45.5404 61.2102C48.7217 59.2925 51.3196 56.5431 53.0542 53.2583C54.6157 53.933 55.9467 55.0483 56.8843 56.4676C57.8219 57.887 58.3254 59.5489 58.3333 61.2499C58.3333 62.0235 58.6406 62.7653 59.1876 63.3123C59.7346 63.8593 60.4764 64.1666 61.25 64.1666C62.0235 64.1666 62.7654 63.8593 63.3124 63.3123C63.8594 62.7653 64.1667 62.0235 64.1667 61.2499C64.1544 58.3475 63.2763 55.5147 61.6447 53.1142C60.0132 50.7137 57.7025 48.8546 55.0083 47.7749C55.2774 46.4501 55.4141 45.1018 55.4167 43.7499V40.8333ZM32.0833 58.0416C28.7894 57.3692 25.8288 55.5794 23.7029 52.975C21.5769 50.3707 20.416 47.1118 20.4167 43.7499V32.0833C20.4167 29.7626 21.3385 27.537 22.9795 25.8961C24.6204 24.2551 26.846 23.3333 29.1667 23.3333H32.0833V58.0416ZM29.1667 17.4999C29.1667 15.9528 29.7812 14.4691 30.8752 13.3751C31.9692 12.2812 33.4529 11.6666 35 11.6666C36.5471 11.6666 38.0308 12.2812 39.1248 13.3751C40.2187 14.4691 40.8333 15.9528 40.8333 17.4999H29.1667ZM49.5833 43.7499C49.584 47.1118 48.4231 50.3707 46.2971 52.975C44.1712 55.5794 41.2106 57.3692 37.9167 58.0416V23.3333H40.8333C43.154 23.3333 45.3796 24.2551 47.0205 25.8961C48.6615 27.537 49.5833 29.7626 49.5833 32.0833V43.7499Z" fill="#97A0CC"/>
</svg>
