<svg width="60" height="60" viewBox="0 0 60 60" fill="none" xmlns="http://www.w3.org/2000/svg">
<path d="M21.17 20.9875L21.165 20.99L21.1575 20.995L21.17 20.9875ZM46.055 20.52C45.8811 20.3522 45.6881 20.2054 45.48 20.0825C45.1854 19.9091 44.8583 19.7979 44.519 19.7559C44.1797 19.7138 43.8354 19.7418 43.5074 19.8381C43.1794 19.9344 42.8746 20.097 42.6119 20.3157C42.3491 20.5345 42.1341 20.8048 41.98 21.11C41.119 22.8073 39.9312 24.3179 38.485 25.555C38.7067 24.3089 38.8188 23.0457 38.82 21.78C38.8247 17.9304 37.8093 14.1482 35.8771 10.8186C33.9448 7.48898 31.1648 4.73085 27.82 2.82502C27.4514 2.6156 27.0356 2.50334 26.6117 2.4988C26.1878 2.49426 25.7697 2.5976 25.3967 2.79909C25.0237 3.00058 24.7081 3.29361 24.4795 3.65064C24.2509 4.00766 24.1169 4.41695 24.09 4.84002C23.95 7.21027 23.3303 9.52744 22.2685 11.6511C21.2066 13.7749 19.7247 15.6609 17.9125 17.195L17.3375 17.6625C15.4415 18.9381 13.7634 20.5108 12.3675 22.32C10.1982 25.0528 8.69546 28.2535 7.97852 31.6681C7.26159 35.0828 7.35016 38.6176 8.23722 41.9921C9.12427 45.3666 10.7854 48.4879 13.0889 51.1086C15.3923 53.7293 18.2747 55.7773 21.5075 57.09C21.887 57.2445 22.2987 57.3033 22.7064 57.2613C23.114 57.2193 23.505 57.0777 23.8451 56.849C24.1851 56.6204 24.4637 56.3116 24.6564 55.9499C24.8491 55.5883 24.9499 55.1848 24.95 54.775C24.9479 54.5102 24.9058 54.2472 24.825 53.995C24.2656 51.8926 24.1045 49.7042 24.35 47.5425C26.7162 52.004 30.5138 55.5401 35.1325 57.5825C35.696 57.8344 36.3329 57.8683 36.92 57.6775C40.5687 56.4997 43.8556 54.4084 46.4685 51.6026C49.0814 48.7967 50.9335 45.3693 51.8489 41.6461C52.7642 37.9228 52.7124 34.0274 51.6983 30.3298C50.6842 26.6323 48.7416 23.2554 46.055 20.52ZM36.2925 52.5975C34.1132 51.4933 32.1907 49.9427 30.65 48.0467C29.1094 46.1507 27.985 43.9516 27.35 41.5925C27.1558 40.7981 27.0056 39.9935 26.9 39.1825C26.8288 38.6661 26.5981 38.1848 26.2399 37.8061C25.8817 37.4273 25.4141 37.1699 24.9025 37.07C24.7452 37.0395 24.5852 37.0244 24.425 37.025C23.9857 37.0246 23.5541 37.1399 23.1736 37.3593C22.7931 37.5788 22.4771 37.8946 22.2575 38.275C20.1836 41.8532 19.1409 45.9356 19.245 50.07C17.4204 48.6518 15.8954 46.8855 14.7585 44.8735C13.6216 42.8615 12.8954 40.6439 12.6219 38.3491C12.3484 36.0544 12.5332 33.7282 13.1654 31.5054C13.7976 29.2826 14.8648 27.2073 16.305 25.4C17.3985 23.9796 18.7177 22.7483 20.21 21.755C20.2753 21.7131 20.3379 21.6672 20.3975 21.6175C20.3975 21.6175 21.1375 21.005 21.1625 20.9925C24.7255 17.9801 27.2599 13.9312 28.4125 9.41002C31.1361 11.9284 32.9519 15.2757 33.578 18.9319C34.2041 22.5882 33.6054 26.3489 31.875 29.63C31.646 30.068 31.5519 30.564 31.6047 31.0553C31.6574 31.5467 31.8546 32.0115 32.1714 32.3908C32.4881 32.7702 32.9102 33.0471 33.3843 33.1867C33.8584 33.3263 34.3632 33.3222 34.835 33.175C38.6643 31.9741 42.0338 29.6289 44.49 26.455C45.9667 28.6356 46.9323 31.1214 47.3147 33.727C47.697 36.3327 47.4864 38.9911 46.6984 41.504C45.9104 44.0169 44.5654 46.3196 42.7637 48.2404C40.962 50.1612 38.7499 51.6506 36.2925 52.5975Z" fill="#97A0CC" stroke="#97A0CC" stroke-width="2"/>
</svg>
