<svg width="70" height="70" viewBox="0 0 70 70" fill="none" xmlns="http://www.w3.org/2000/svg">
<path d="M35 5.83325C29.2314 5.83325 23.5923 7.54385 18.7959 10.7487C13.9994 13.9536 10.2611 18.5088 8.05351 23.8383C5.84596 29.1678 5.26836 35.0323 6.39376 40.6901C7.51917 46.3478 10.297 51.5448 14.3761 55.6239C18.4551 59.7029 23.6521 62.4808 29.3099 63.6062C34.9676 64.7316 40.8321 64.154 46.1616 61.9464C51.4911 59.7389 56.0463 56.0005 59.2512 51.2041C62.4561 46.4076 64.1667 40.7685 64.1667 34.9999C64.1667 31.1697 63.4122 27.377 61.9465 23.8383C60.4807 20.2997 58.3323 17.0843 55.6239 14.376C52.9156 11.6676 49.7003 9.51919 46.1616 8.05343C42.6229 6.58767 38.8302 5.83325 35 5.83325ZM35 58.3333C30.3851 58.3333 25.8738 56.9648 22.0367 54.4009C18.1995 51.837 15.2089 48.1928 13.4428 43.9292C11.6768 39.6656 11.2147 34.974 12.115 30.4478C13.0153 25.9216 15.2376 21.764 18.5008 18.5008C21.7641 15.2375 25.9217 13.0153 30.4479 12.1149C34.9741 11.2146 39.6657 11.6767 43.9293 13.4427C48.1929 15.2088 51.8371 18.1995 54.401 22.0366C56.9649 25.8738 58.3333 30.385 58.3333 34.9999C58.3333 41.1883 55.875 47.1232 51.4992 51.4991C47.1233 55.8749 41.1884 58.3333 35 58.3333ZM46.6667 32.0833H37.9167V23.3333C37.9167 22.5597 37.6094 21.8178 37.0624 21.2709C36.5154 20.7239 35.7735 20.4166 35 20.4166C34.2265 20.4166 33.4846 20.7239 32.9376 21.2709C32.3906 21.8178 32.0833 22.5597 32.0833 23.3333V32.0833H23.3333C22.5598 32.0833 21.8179 32.3905 21.2709 32.9375C20.724 33.4845 20.4167 34.2264 20.4167 34.9999C20.4167 35.7735 20.724 36.5153 21.2709 37.0623C21.8179 37.6093 22.5598 37.9166 23.3333 37.9166H32.0833V46.6666C32.0833 47.4401 32.3906 48.182 32.9376 48.729C33.4846 49.276 34.2265 49.5833 35 49.5833C35.7735 49.5833 36.5154 49.276 37.0624 48.729C37.6094 48.182 37.9167 47.4401 37.9167 46.6666V37.9166H46.6667C47.4402 37.9166 48.1821 37.6093 48.7291 37.0623C49.276 36.5153 49.5833 35.7735 49.5833 34.9999C49.5833 34.2264 49.276 33.4845 48.7291 32.9375C48.1821 32.3905 47.4402 32.0833 46.6667 32.0833Z" fill="#97A0CC"/>
</svg>
