<svg width="48" height="48" viewBox="0 0 48 48" fill="none" xmlns="http://www.w3.org/2000/svg">
<path d="M26.8199 23.9999L39.4199 11.4199C39.7965 11.0433 40.0081 10.5325 40.0081 9.99988C40.0081 9.46728 39.7965 8.95649 39.4199 8.57988C39.0433 8.20328 38.5325 7.9917 37.9999 7.9917C37.4673 7.9917 36.9565 8.20328 36.5799 8.57988L23.9999 21.1799L11.4199 8.57988C11.0433 8.20328 10.5325 7.9917 9.99988 7.9917C9.46727 7.9917 8.95649 8.20328 8.57988 8.57988C8.20327 8.95649 7.99169 9.46728 7.99169 9.99988C7.99169 10.5325 8.20327 11.0433 8.57988 11.4199L21.1799 23.9999L8.57988 36.5799C8.39242 36.7658 8.24363 36.987 8.1421 37.2307C8.04056 37.4744 7.98828 37.7359 7.98828 37.9999C7.98828 38.2639 8.04056 38.5253 8.1421 38.769C8.24363 39.0128 8.39242 39.234 8.57988 39.4199C8.7658 39.6073 8.98701 39.7561 9.23072 39.8577C9.47444 39.9592 9.73585 40.0115 9.99988 40.0115C10.2639 40.0115 10.5253 39.9592 10.769 39.8577C11.0128 39.7561 11.234 39.6073 11.4199 39.4199L23.9999 26.8199L36.5799 39.4199C36.7658 39.6073 36.987 39.7561 37.2307 39.8577C37.4744 39.9592 37.7359 40.0115 37.9999 40.0115C38.2639 40.0115 38.5253 39.9592 38.769 39.8577C39.0128 39.7561 39.2339 39.6073 39.4199 39.4199C39.6073 39.234 39.7561 39.0128 39.8577 38.769C39.9592 38.5253 40.0115 38.2639 40.0115 37.9999C40.0115 37.7359 39.9592 37.4744 39.8577 37.2307C39.7561 36.987 39.6073 36.7658 39.4199 36.5799L26.8199 23.9999Z" fill="#97A0CC"/>
</svg>
