<svg width="60" height="60" viewBox="0 0 60 60" fill="none" xmlns="http://www.w3.org/2000/svg">
<path d="M51.1293 28.883C51.1415 28.7838 51.1415 28.6835 51.1293 28.5843C48.8437 23.2724 44.5195 19.0393 39.0773 16.7862V5.97373H42.144C42.9573 5.97373 43.7373 5.65905 44.3125 5.0989C44.8876 4.53875 45.2107 3.77903 45.2107 2.98687C45.2107 2.1947 44.8876 1.43498 44.3125 0.874833C43.7373 0.314687 42.9573 0 42.144 0H17.6107C16.7973 0 16.0173 0.314687 15.4422 0.874833C14.8671 1.43498 14.544 2.1947 14.544 2.98687C14.544 3.77903 14.8671 4.53875 15.4422 5.0989C16.0173 5.65905 16.7973 5.97373 17.6107 5.97373H20.6773V16.7862C15.2527 19.1001 10.9716 23.3877 8.74801 28.7337C8.73579 28.8329 8.73579 28.9331 8.74801 29.0323C7.30189 32.4358 6.73972 36.134 7.11129 39.7995C7.48286 43.465 8.77669 46.9848 10.8782 50.047C12.9797 53.1093 15.8241 55.6196 19.1595 57.3557C22.4948 59.0918 26.2182 60 30 60C33.7818 60 37.5052 59.0918 40.8405 57.3557C44.1759 55.6196 47.0203 53.1093 49.1218 50.047C51.2233 46.9848 52.5171 43.465 52.8887 39.7995C53.2603 36.134 52.6981 32.4358 51.252 29.0323L51.1293 28.883ZM24.6947 21.6847C25.3095 21.4894 25.8452 21.1098 26.2253 20.6002C26.6053 20.0906 26.8102 19.477 26.8107 18.8471V5.97373H32.944V18.8471C32.9445 19.477 33.1494 20.0906 33.5294 20.6002C33.9094 21.1098 34.4452 21.4894 35.06 21.6847C38.1169 22.6488 40.8221 24.4537 42.8493 26.8818H16.9053C18.9326 24.4537 21.6378 22.6488 24.6947 21.6847ZM29.8773 53.7636C25.4065 53.7557 21.1211 52.0224 17.9598 48.9433C14.7984 45.8642 13.0188 41.6903 13.0107 37.3358C13.0156 35.8187 13.2428 34.3101 13.6853 32.8555H46.0693C46.5118 34.3101 46.739 35.8187 46.744 37.3358C46.7359 41.6903 44.9563 45.8642 41.7949 48.9433C38.6336 52.0224 34.3482 53.7557 29.8773 53.7636ZM36.0107 41.8161C35.4041 41.8161 34.8112 41.9913 34.3069 42.3195C33.8026 42.6477 33.4095 43.1142 33.1774 43.66C32.9453 44.2057 32.8846 44.8063 33.0029 45.3857C33.1213 45.9651 33.4133 46.4973 33.8422 46.915C34.2711 47.3327 34.8175 47.6172 35.4124 47.7325C36.0073 47.8477 36.6239 47.7886 37.1842 47.5625C37.7446 47.3364 38.2235 46.9536 38.5605 46.4624C38.8975 45.9712 39.0773 45.3937 39.0773 44.803C39.0773 44.0108 38.7542 43.2511 38.1791 42.691C37.604 42.1308 36.824 41.8161 36.0107 41.8161ZM23.744 38.8293C23.1375 38.8293 22.5446 39.0044 22.0403 39.3326C21.5359 39.6608 21.1429 40.1273 20.9108 40.6731C20.6787 41.2189 20.6179 41.8194 20.7363 42.3988C20.8546 42.9782 21.1467 43.5104 21.5755 43.9282C22.0044 44.3459 22.5508 44.6304 23.1457 44.7456C23.7406 44.8609 24.3572 44.8017 24.9176 44.5756C25.4779 44.3496 25.9569 43.9667 26.2938 43.4755C26.6308 42.9844 26.8107 42.4069 26.8107 41.8161C26.8107 41.024 26.4876 40.2642 25.9125 39.7041C25.3374 39.1439 24.5573 38.8293 23.744 38.8293Z" fill="#97A0CC"/>
</svg>
