<svg width="60" height="60" viewBox="0 0 60 60" fill="none" xmlns="http://www.w3.org/2000/svg">
<path d="M50 2.5H10C8.01088 2.5 6.10322 3.29018 4.6967 4.6967C3.29018 6.10322 2.5 8.01088 2.5 10V50C2.5 51.9891 3.29018 53.8968 4.6967 55.3033C6.10322 56.7098 8.01088 57.5 10 57.5H50C51.9891 57.5 53.8968 56.7098 55.3033 55.3033C56.7098 53.8968 57.5 51.9891 57.5 50V10C57.5 8.01088 56.7098 6.10322 55.3033 4.6967C53.8968 3.29018 51.9891 2.5 50 2.5ZM20 52.5H10C9.33696 52.5 8.70107 52.2366 8.23223 51.7678C7.76339 51.2989 7.5 50.663 7.5 50V47.05C8.30168 47.3411 9.14714 47.4932 10 47.5H20V52.5ZM20 42.5H10C9.33696 42.5 8.70107 42.2366 8.23223 41.7678C7.76339 41.2989 7.5 40.663 7.5 40V37.05C8.30168 37.3411 9.14714 37.4932 10 37.5H20V42.5ZM20 32.5H10C9.33696 32.5 8.70107 32.2366 8.23223 31.7678C7.76339 31.2989 7.5 30.663 7.5 30V10C7.5 9.33696 7.76339 8.70107 8.23223 8.23223C8.70107 7.76339 9.33696 7.5 10 7.5H20V32.5ZM35 52.5H25V37.5H35V52.5ZM35 32.5H25V7.5H35V32.5ZM52.5 50C52.5 50.663 52.2366 51.2989 51.7678 51.7678C51.2989 52.2366 50.663 52.5 50 52.5H40V47.5H50C50.8529 47.4932 51.6983 47.3411 52.5 47.05V50ZM52.5 40C52.5 40.663 52.2366 41.2989 51.7678 41.7678C51.2989 42.2366 50.663 42.5 50 42.5H40V37.5H50C50.8529 37.4932 51.6983 37.3411 52.5 37.05V40ZM52.5 30C52.5 30.663 52.2366 31.2989 51.7678 31.7678C51.2989 32.2366 50.663 32.5 50 32.5H40V7.5H50C50.663 7.5 51.2989 7.76339 51.7678 8.23223C52.2366 8.70107 52.5 9.33696 52.5 10V30ZM45 17.5C44.5055 17.5 44.0222 17.6466 43.6111 17.9213C43.2 18.196 42.8795 18.5865 42.6903 19.0433C42.5011 19.5001 42.4516 20.0028 42.548 20.4877C42.6445 20.9727 42.8826 21.4181 43.2322 21.7678C43.5819 22.1174 44.0273 22.3555 44.5123 22.452C44.9972 22.5484 45.4999 22.4989 45.9567 22.3097C46.4135 22.1205 46.804 21.8 47.0787 21.3889C47.3534 20.9778 47.5 20.4945 47.5 20C47.5 19.337 47.2366 18.7011 46.7678 18.2322C46.2989 17.7634 45.663 17.5 45 17.5ZM15 22.5C15.4945 22.5 15.9778 22.3534 16.3889 22.0787C16.8 21.804 17.1205 21.4135 17.3097 20.9567C17.4989 20.4999 17.5484 19.9972 17.452 19.5123C17.3555 19.0273 17.1174 18.5819 16.7678 18.2322C16.4181 17.8826 15.9727 17.6445 15.4877 17.548C15.0028 17.4516 14.5001 17.5011 14.0433 17.6903C13.5865 17.8795 13.196 18.2 12.9213 18.6111C12.6466 19.0222 12.5 19.5055 12.5 20C12.5 20.663 12.7634 21.2989 13.2322 21.7678C13.7011 22.2366 14.337 22.5 15 22.5Z" fill="#97A0CC"/>
</svg>
