<svg width="60" height="60" viewBox="0 0 60 60" fill="none" xmlns="http://www.w3.org/2000/svg">
<g clip-path="url(#clip0_15_44)">
<path d="M30 0C24.1704 0.0110665 18.4697 1.71571 13.5925 4.90629C8.7153 8.09687 4.87196 12.6357 2.53065 17.9699C0.189337 23.3041 -0.548896 29.2034 0.405868 34.9494C1.36063 40.6953 3.96719 46.0399 7.90804 50.332C10.7227 53.3803 14.1387 55.8131 17.9409 57.477C21.7431 59.141 25.8491 60 30 60C34.1509 60 38.2569 59.141 42.0591 57.477C45.8613 55.8131 49.2774 53.3803 52.092 50.332C56.0328 46.0399 58.6394 40.6953 59.5941 34.9494C60.5489 29.2034 59.8107 23.3041 57.4694 17.9699C55.128 12.6357 51.2847 8.09687 46.4075 4.90629C41.5303 1.71571 35.8296 0.0110665 30 0ZM30 54.0559C23.7736 54.0464 17.7936 51.6242 13.3183 47.2989C14.677 43.9941 16.9884 41.1674 19.9587 39.1782C22.929 37.1889 26.4241 36.1267 30 36.1267C33.5759 36.1267 37.071 37.1889 40.0413 39.1782C43.0116 41.1674 45.323 43.9941 46.6817 47.2989C42.2064 51.6242 36.2264 54.0464 30 54.0559ZM23.9886 24.0248C23.9886 22.8369 24.3411 21.6757 25.0017 20.688C25.6622 19.7002 26.6011 18.9304 27.6995 18.4758C28.798 18.0212 30.0067 17.9023 31.1728 18.134C32.3389 18.3658 33.41 18.9378 34.2507 19.7778C35.0914 20.6178 35.664 21.688 35.8959 22.8531C36.1279 24.0182 36.0088 25.2258 35.5538 26.3233C35.0988 27.4208 34.3283 28.3588 33.3398 29.0188C32.3512 29.6788 31.1889 30.031 30 30.031C28.4057 30.031 26.8766 29.3982 25.7493 28.2719C24.6219 27.1455 23.9886 25.6178 23.9886 24.0248ZM50.7695 42.0435C48.0839 37.454 43.9507 33.8841 39.0171 31.893C40.5475 30.1591 41.5447 28.0209 41.889 25.7349C42.2333 23.4489 41.91 21.1122 40.9581 19.0051C40.0061 16.8981 38.4658 15.1103 36.5221 13.8562C34.5784 12.6021 32.3138 11.9351 30 11.9351C27.6862 11.9351 25.4216 12.6021 23.4779 13.8562C21.5342 15.1103 19.9939 16.8981 19.0419 19.0051C18.09 21.1122 17.7667 23.4489 18.111 25.7349C18.4553 28.0209 19.4525 30.1591 20.9829 31.893C16.0493 33.8841 11.9161 37.454 9.23055 42.0435C7.09032 38.401 5.9595 34.2548 5.95433 30.031C5.95433 23.6593 8.48771 17.5484 12.9971 13.0429C17.5066 8.53739 23.6227 6.00621 30 6.00621C36.3773 6.00621 42.4934 8.53739 47.0029 13.0429C51.5123 17.5484 54.0457 23.6593 54.0457 30.031C54.0405 34.2548 52.9097 38.401 50.7695 42.0435Z" fill="#97A0CC"/>
</g>
<defs>
<clipPath id="clip0_15_44">
<rect width="60" height="60" fill="white"/>
</clipPath>
</defs>
</svg>
