<svg width="60" height="60" viewBox="0 0 60 60" fill="none" xmlns="http://www.w3.org/2000/svg">
<path d="M52.675 42.075L47.5 36.775C46.3868 35.7168 44.9827 35.0158 43.468 34.7618C41.9533 34.5079 40.3973 34.7127 39 35.35L36.75 33.1C39.4014 29.5573 40.6122 25.1417 40.1388 20.7421C39.6654 16.3425 37.5429 12.2855 34.1986 9.38797C30.8542 6.49041 26.5363 4.96737 22.1141 5.12544C17.692 5.28351 13.4938 7.11095 10.3649 10.2399C7.23595 13.3688 5.40851 17.567 5.25044 21.9891C5.09237 26.4113 6.61541 30.7292 9.51297 34.0736C12.4105 37.4179 16.4675 39.5404 20.8671 40.0138C25.2667 40.4872 29.6823 39.2764 33.225 36.625L35.45 38.85C34.7377 40.2491 34.4824 41.8364 34.7201 43.3883C34.9579 44.9401 35.6766 46.3783 36.775 47.5L42.075 52.8C43.4812 54.2045 45.3875 54.9934 47.375 54.9934C49.3625 54.9934 51.2687 54.2045 52.675 52.8C53.3893 52.1015 53.9569 51.2673 54.3444 50.3465C54.7319 49.4256 54.9315 48.4366 54.9315 47.4375C54.9315 46.4384 54.7319 45.4494 54.3444 44.5285C53.9569 43.6076 53.3893 42.7735 52.675 42.075ZM31.475 31.475C29.7256 33.22 27.4982 34.4073 25.0743 34.8871C22.6504 35.3669 20.1387 35.1175 17.8565 34.1704C15.5742 33.2234 13.6239 31.6212 12.2518 29.5663C10.8796 27.5114 10.1473 25.0959 10.1473 22.625C10.1473 20.1541 10.8796 17.7386 12.2518 15.6836C13.6239 13.6287 15.5742 12.0265 17.8565 11.0795C20.1387 10.1325 22.6504 9.8831 25.0743 10.3629C27.4982 10.8426 29.7256 12.03 31.475 13.775C32.6391 14.9361 33.5626 16.3155 34.1928 17.8341C34.823 19.3528 35.1473 20.9808 35.1473 22.625C35.1473 24.2692 34.823 25.8972 34.1928 27.4158C33.5626 28.9344 32.6391 30.3138 31.475 31.475ZM49.15 49.15C48.9176 49.3843 48.6411 49.5703 48.3364 49.6972C48.0318 49.8241 47.705 49.8895 47.375 49.8895C47.0449 49.8895 46.7182 49.8241 46.4135 49.6972C46.1089 49.5703 45.8324 49.3843 45.6 49.15L40.3 43.85C40.0657 43.6176 39.8797 43.3411 39.7527 43.0364C39.6258 42.7318 39.5605 42.405 39.5605 42.075C39.5605 41.7449 39.6258 41.4182 39.7527 41.1135C39.8797 40.8089 40.0657 40.5324 40.3 40.3C40.5324 40.0657 40.8089 39.8797 41.1135 39.7527C41.4182 39.6258 41.7449 39.5605 42.075 39.5605C42.405 39.5605 42.7318 39.6258 43.0364 39.7527C43.3411 39.8797 43.6176 40.0657 43.85 40.3L49.15 45.6C49.3843 45.8324 49.5703 46.1089 49.6972 46.4135C49.8241 46.7182 49.8895 47.0449 49.8895 47.375C49.8895 47.705 49.8241 48.0318 49.6972 48.3364C49.5703 48.6411 49.3843 48.9176 49.15 49.15Z" fill="#97A0CC"/>
</svg>
