<svg width="60" height="60" viewBox="0 0 60 60" fill="none" xmlns="http://www.w3.org/2000/svg">
<path d="M49.75 31.65C49.3492 31.1938 49.1282 30.6073 49.1282 30C49.1282 29.3927 49.3492 28.8062 49.75 28.35L52.95 24.75C53.3026 24.3567 53.5216 23.8617 53.5755 23.3363C53.6294 22.8108 53.5154 22.2817 53.25 21.825L48.25 13.175C47.9872 12.7188 47.5872 12.3572 47.1069 12.1417C46.6265 11.9262 46.0904 11.8679 45.575 11.975L40.875 12.925C40.2769 13.0486 39.6544 12.949 39.1247 12.645C38.5951 12.341 38.195 11.8537 38 11.275L36.475 6.69998C36.3073 6.20343 35.9877 5.77214 35.5616 5.46709C35.1354 5.16203 34.6241 4.99863 34.1 4.99998H24.1C23.5548 4.97153 23.0153 5.1223 22.5639 5.42927C22.1125 5.73624 21.7739 6.18253 21.6 6.69998L20.2 11.275C20.005 11.8537 19.6049 12.341 19.0753 12.645C18.5456 12.949 17.923 13.0486 17.325 12.925L12.5 11.975C12.0114 11.9059 11.5132 11.983 11.0684 12.1966C10.6235 12.4101 10.2517 12.7506 9.99998 13.175L4.99998 21.825C4.72788 22.2766 4.60554 22.8027 4.65044 23.328C4.69534 23.8534 4.90519 24.3511 5.24998 24.75L8.42498 28.35C8.82578 28.8062 9.04682 29.3927 9.04682 30C9.04682 30.6073 8.82578 31.1938 8.42498 31.65L5.24998 35.25C4.90519 35.6489 4.69534 36.1466 4.65044 36.6719C4.60554 37.1973 4.72788 37.7234 4.99998 38.175L9.99998 46.825C10.2627 47.2812 10.6628 47.6428 11.1431 47.8583C11.6234 48.0737 12.1595 48.1321 12.675 48.025L17.375 47.075C17.973 46.9514 18.5956 47.051 19.1253 47.355C19.6549 47.659 20.055 48.1463 20.25 48.725L21.775 53.3C21.9489 53.8174 22.2875 54.2637 22.7389 54.5707C23.1903 54.8777 23.7298 55.0284 24.275 55H34.275C34.7991 55.0013 35.3104 54.8379 35.7366 54.5329C36.1627 54.2278 36.4823 53.7965 36.65 53.3L38.175 48.725C38.37 48.1463 38.7701 47.659 39.2997 47.355C39.8293 47.051 40.4519 46.9514 41.05 47.075L45.75 48.025C46.2654 48.1321 46.8015 48.0737 47.2819 47.8583C47.7622 47.6428 48.1622 47.2812 48.425 46.825L53.425 38.175C53.6904 37.7183 53.8044 37.1892 53.7505 36.6637C53.6966 36.1382 53.4776 35.6433 53.125 35.25L49.75 31.65ZM46.025 35L48.025 37.25L44.825 42.8L41.875 42.2C40.0744 41.8319 38.2014 42.1378 36.6115 43.0595C35.0215 43.9812 33.8253 45.4546 33.25 47.2L32.3 50H25.9L25 47.15C24.4246 45.4046 23.2284 43.9312 21.6385 43.0095C20.0486 42.0878 18.1755 41.7819 16.375 42.15L13.425 42.75L10.175 37.225L12.175 34.975C13.4049 33.5999 14.0848 31.8198 14.0848 29.975C14.0848 28.1301 13.4049 26.35 12.175 24.975L10.175 22.725L13.375 17.225L16.325 17.825C18.1255 18.193 19.9986 17.8872 21.5885 16.9655C23.1784 16.0438 24.3746 14.5704 24.95 12.825L25.9 9.99998H32.3L33.25 12.85C33.8253 14.5954 35.0215 16.0688 36.6115 16.9905C38.2014 17.9122 40.0744 18.218 41.875 17.85L44.825 17.25L48.025 22.8L46.025 25.05C44.8089 26.4219 44.1374 28.1917 44.1374 30.025C44.1374 31.8583 44.8089 33.6281 46.025 35ZM29.1 20C27.1222 20 25.1888 20.5865 23.5443 21.6853C21.8998 22.7841 20.6181 24.3459 19.8612 26.1731C19.1043 28.0004 18.9063 30.0111 19.2921 31.9509C19.678 33.8907 20.6304 35.6725 22.0289 37.071C23.4274 38.4696 25.2093 39.422 27.1491 39.8078C29.0889 40.1937 31.0996 39.9957 32.9268 39.2388C34.7541 38.4819 36.3159 37.2002 37.4147 35.5557C38.5135 33.9112 39.1 31.9778 39.1 30C39.1 27.3478 38.0464 24.8043 36.1711 22.9289C34.2957 21.0536 31.7521 20 29.1 20ZM29.1 35C28.1111 35 27.1444 34.7067 26.3221 34.1573C25.4999 33.6079 24.859 32.827 24.4806 31.9134C24.1021 30.9998 24.0031 29.9944 24.1961 29.0245C24.389 28.0546 24.8652 27.1637 25.5644 26.4644C26.2637 25.7652 27.1546 25.289 28.1245 25.0961C29.0944 24.9031 30.0998 25.0021 31.0134 25.3806C31.927 25.759 32.7079 26.3999 33.2573 27.2221C33.8067 28.0444 34.1 29.0111 34.1 30C34.1 31.3261 33.5732 32.5978 32.6355 33.5355C31.6978 34.4732 30.4261 35 29.1 35Z" fill="#97A0CC"/>
</svg>
