<svg width="75" height="75" viewBox="0 0 75 75" fill="none" xmlns="http://www.w3.org/2000/svg">
<path d="M51.1364 25.625C48.7765 25.625 46.4696 26.3215 44.5074 27.6263C42.5452 28.9311 41.0159 30.7858 40.1128 32.9556C39.2097 35.1255 38.9734 37.5132 39.4338 39.8167C39.8942 42.1202 41.0306 44.2361 42.6993 45.8969C44.368 47.5576 46.494 48.6886 48.8086 49.1468C51.1231 49.605 53.5222 49.3699 55.7025 48.4711C57.8827 47.5723 59.7462 46.0502 61.0573 44.0974C62.3684 42.1446 63.0682 39.8487 63.0682 37.5C63.0682 34.3506 61.8111 31.3301 59.5734 29.1031C57.3358 26.8761 54.3009 25.625 51.1364 25.625ZM51.1364 42.5893C50.125 42.5893 49.1363 42.2908 48.2954 41.7316C47.4544 41.1724 46.799 40.3775 46.412 39.4476C46.0249 38.5176 45.9237 37.4944 46.121 36.5071C46.3183 35.5199 46.8053 34.6131 47.5205 33.9013C48.2356 33.1896 49.1468 32.7049 50.1387 32.5085C51.1307 32.3121 52.1589 32.4129 53.0933 32.7981C54.0277 33.1833 54.8263 33.8356 55.3882 34.6725C55.9501 35.5095 56.25 36.4934 56.25 37.5C56.25 38.8498 55.7112 40.1442 54.7523 41.0987C53.7933 42.0531 52.4926 42.5893 51.1364 42.5893ZM51.1364 13.75H23.8636C17.5346 13.75 11.4648 16.2522 6.9895 20.7062C2.5142 25.1602 0 31.2011 0 37.5C0 43.7989 2.5142 49.8398 6.9895 54.2938C11.4648 58.7478 17.5346 61.25 23.8636 61.25H51.1364C57.4654 61.25 63.5352 58.7478 68.0105 54.2938C72.4858 49.8398 75 43.7989 75 37.5C75 31.2011 72.4858 25.1602 68.0105 20.7062C63.5352 16.2522 57.4654 13.75 51.1364 13.75ZM51.1364 54.4643H23.8636C19.3429 54.4643 15.0073 52.677 11.8107 49.4956C8.61404 46.3141 6.81818 41.9992 6.81818 37.5C6.81818 33.0008 8.61404 28.6859 11.8107 25.5044C15.0073 22.323 19.3429 20.5357 23.8636 20.5357H51.1364C55.6571 20.5357 59.9927 22.323 63.1893 25.5044C66.386 28.6859 68.1818 33.0008 68.1818 37.5C68.1818 41.9992 66.386 46.3141 63.1893 49.4956C59.9927 52.677 55.6571 54.4643 51.1364 54.4643Z" fill="#97A0CC"/>
<path d="M51.1364 42.5893C50.125 42.5893 49.1363 42.2908 48.2954 41.7316C47.4544 41.1724 46.799 40.3775 46.412 39.4476C46.0249 38.5176 45.9237 37.4944 46.121 36.5071C46.3183 35.5199 46.8053 34.6131 47.5205 33.9013C48.2356 33.1896 49.1468 32.7049 50.1387 32.5085C51.1307 32.3121 52.1589 32.4129 53.0933 32.7981C54.0277 33.1833 54.8263 33.8356 55.3882 34.6725C55.9501 35.5095 56.25 36.4934 56.25 37.5C56.25 38.8498 55.7112 40.1442 54.7523 41.0987C53.7933 42.0531 52.4926 42.5893 51.1364 42.5893Z" fill="#97A0CC"/>
</svg>
